<svg width="72" height="90" viewBox="0 0 72 90" fill="none" xmlns="http://www.w3.org/2000/svg">
<g clip-path="url(#clip0_129_378)">
<path d="M7.5415 37.5816C1.67487 36.7016 -0.651252 33.1817 0.15541 26.3558H71.3587C71.2238 28.2948 71.3587 30.2747 70.8923 32.1051C70.1766 34.9475 68.1409 36.684 65.2516 37.3352C64.791 37.4379 64.3217 37.4936 63.7614 37.5875V38.887C63.7614 53.8175 63.7614 68.7501 63.7614 83.6846C63.7614 87.7267 61.4881 89.9971 57.4343 89.9971H13.8481C9.81189 89.9971 7.54443 87.712 7.54443 83.6582C7.54443 68.7608 7.54443 53.8645 7.54443 38.9691L7.5415 37.5816ZM24.3787 35.0531C20.982 38.3091 16.5996 38.3619 13.2321 35.1177C11.3225 35.7864 11.2433 37.2531 11.2521 38.9779C11.3137 50.5029 11.2844 62.0279 11.2844 73.5558V74.9227H60.0185V71.5729C60.0185 60.1936 60.0185 48.8143 60.0185 37.435C60.0185 36.7456 59.8895 36.2616 59.2471 35.9126C58.8545 35.6481 58.489 35.3454 58.1559 35.0091C54.6828 38.359 50.3004 38.3003 46.9066 35.0473C43.413 38.2974 39.2184 38.3502 35.6368 35.0766C32.0787 38.3472 27.884 38.312 24.3787 35.0531ZM35.6544 84.3328C36.8629 84.3328 38.0685 84.3534 39.277 84.3328C40.4328 84.3094 41.213 83.5878 41.257 82.5728C41.301 81.5579 40.512 80.6456 39.324 80.6251C36.8737 80.588 34.4224 80.588 31.9702 80.6251C31.7213 80.6153 31.473 80.6555 31.24 80.7435C31.007 80.8314 30.7941 80.9653 30.6138 81.1371C30.4335 81.3089 30.2895 81.5152 30.1905 81.7436C30.0914 81.9721 30.0393 82.2182 30.0371 82.4672C30.0224 83.532 30.832 84.3182 32.0318 84.3446C33.2315 84.371 34.4459 84.3387 35.6544 84.3387V84.3328Z" fill="#0F3F01"/>
<path d="M63.7616 11.1935H7.60034C7.60034 9.02288 7.42434 6.89036 7.64434 4.80184C7.94647 1.93892 10.3841 0.0234665 13.4112 0C18.4243 0 23.4373 0 28.4533 0H57.4286C61.5 0 63.7587 2.24985 63.7645 6.29783L63.7616 11.1935ZM35.5431 7.49462C36.7868 7.49462 38.0306 7.51809 39.2743 7.49462C40.4476 7.46822 41.2103 6.75249 41.2572 5.73463C41.3041 4.71677 40.5239 3.80744 39.3271 3.78398C36.8748 3.74096 34.4236 3.74096 31.9733 3.78398C31.7151 3.77386 31.4576 3.81765 31.2173 3.91256C30.977 4.00747 30.7591 4.15141 30.5775 4.33522C30.3959 4.51902 30.2546 4.73865 30.1626 4.9801C30.0706 5.22155 30.0299 5.47952 30.0431 5.73757C30.093 6.76423 30.8615 7.47409 32.029 7.49755C33.1965 7.52102 34.3727 7.49462 35.5431 7.49462Z" fill="#0F3F01"/>
<path d="M0.973633 22.434C2.36109 20.3455 3.72802 18.4154 4.95121 16.3943C5.59361 15.3324 6.33573 14.9746 7.59119 14.9775C26.4348 15.0205 45.2794 15.0205 64.125 14.9775C65.093 14.9775 65.6415 15.2708 66.146 16.0804C67.466 18.1866 68.8682 20.2399 70.3348 22.434H0.973633Z" fill="#0F3F01"/>
<path d="M49.3646 58.0797H21.853C21.9645 57.625 22.0349 57.1997 22.1669 56.8154C23.9269 51.6616 27.4469 48.432 32.7503 47.2058C33.5628 47.0181 33.862 46.7277 33.7858 45.9152C33.7329 45.369 33.7566 44.8181 33.8562 44.2784C33.9097 43.8567 34.121 43.4709 34.4476 43.1988C34.7741 42.9266 35.1917 42.7883 35.6161 42.8117C36.5695 42.8117 37.1913 43.3016 37.4348 44.2373C37.4713 44.3786 37.4949 44.523 37.5052 44.6685C37.5609 45.4253 37.3527 46.3757 37.7369 46.8832C38.0801 47.3378 39.0833 47.2645 39.7727 47.4962C44.7006 49.1624 47.9185 52.4829 49.3206 57.5077C49.3541 57.6477 49.3786 57.7898 49.3939 57.933C49.3901 57.9829 49.3802 58.0321 49.3646 58.0797Z" fill="#0F3F01"/>
<path d="M35.5399 65.63C30.8192 65.63 26.1005 65.63 21.3837 65.63C20.9472 65.6506 20.5101 65.6051 20.0872 65.4951C19.6711 65.3904 19.3095 65.1335 19.0737 64.775C18.838 64.4165 18.7454 63.9826 18.8142 63.5591C18.841 63.1324 19.0222 62.7302 19.324 62.4273C19.6257 62.1245 20.0273 61.9419 20.4539 61.9135C20.7465 61.8889 21.0404 61.882 21.3339 61.893H49.9777C50.1948 61.893 50.4148 61.893 50.6348 61.893C51.6996 61.9604 52.471 62.685 52.518 63.653C52.5649 64.621 51.7846 65.4951 50.6876 65.6036C50.3947 65.6232 50.101 65.6281 49.8076 65.6183L35.5399 65.63Z" fill="#0F3F01"/>
</g>
<defs>
<clipPath id="clip0_129_378">
<rect width="71.3588" height="90" fill="white"/>
</clipPath>
</defs>
</svg>
