<svg width="72" height="90" viewBox="0 0 72 90" fill="none" xmlns="http://www.w3.org/2000/svg">
<g clip-path="url(#clip0_129_374)">
<path d="M71.9747 35.7251C71.8896 43.2585 69.7465 49.9181 66.4267 56.2423C61.4946 65.6433 54.7448 73.6424 47.0688 80.8779C43.9167 83.8522 40.5268 86.5786 37.2195 89.3902C36.2556 90.2063 35.7449 90.1963 34.7985 89.4527C24.3284 81.2384 15.055 71.9049 7.96978 60.5585C4.33954 54.7451 1.53799 48.5712 0.481464 41.7263C-1.19345 30.8606 1.50294 21.1441 8.55062 12.7294C14.2714 5.90457 21.622 1.7035 30.4222 0.439171C43.1706 -1.39097 54.0614 2.50465 62.7664 12.0184C68.9454 18.7782 71.8546 26.9024 71.9747 35.7251ZM8.97874 35.8854C8.95621 50.7669 20.9961 62.9244 35.79 62.967C39.3498 62.9845 42.8781 62.2988 46.1723 60.9493C49.4666 59.5999 52.4619 57.6132 54.9864 55.1033C57.511 52.5934 59.5151 49.6097 60.8837 46.3234C62.2523 43.0371 62.9585 39.5129 62.9617 35.953C62.9867 21.1816 50.8993 9.01155 36.1455 8.9715C21.1563 8.93144 9.01379 20.9713 8.97874 35.8854Z" fill="#0F3F01"/>
<path d="M41.968 43.4653C41.968 41.4974 41.9455 39.5271 41.9831 37.5592C42.0053 37.3029 41.9552 37.0454 41.8383 36.8161C41.7215 36.5869 41.5426 36.395 41.3221 36.2624C36.6879 32.9226 36.1046 25.7096 40.1078 21.6262C42.8743 18.8022 46.9427 18.7571 49.7217 21.5211C53.8377 25.607 53.2844 32.9251 48.5826 36.2924C48.3749 36.4172 48.2062 36.5974 48.0952 36.8128C47.9842 37.0281 47.9354 37.2701 47.9542 37.5117C47.9775 41.4791 47.9775 45.4473 47.9542 49.4164C47.9735 50.0632 47.7796 50.6984 47.4022 51.2241C47.0249 51.7499 46.4852 52.1369 45.8662 52.3256C45.2688 52.5355 44.6181 52.5385 44.0188 52.3342C43.4195 52.1299 42.9062 51.73 42.5614 51.1989C42.2132 50.6157 42.0162 49.9548 41.9881 49.2762C41.9205 47.3409 41.968 45.4031 41.968 43.4653Z" fill="#0F3F01"/>
<path d="M23.9745 37.5267C21.6912 37.2513 20.1465 36.1522 19.5857 33.899C19.5179 33.6262 19.4834 33.3463 19.4831 33.0653C19.4831 29.0995 19.4455 25.1338 19.5131 21.1681C19.5422 20.8727 19.6324 20.5865 19.7781 20.3279C19.9238 20.0693 20.1217 19.8438 20.3593 19.6659C21.3282 19.0325 22.4523 19.8537 22.4674 21.1405C22.4899 23.2661 22.4674 25.3967 22.4674 27.5122V28.4035H25.4717V22.0468C25.4717 21.7038 25.4567 21.3584 25.4717 21.0154C25.5243 20.1141 26.1051 19.5132 26.9188 19.4781C27.1249 19.468 27.3308 19.5013 27.5231 19.5758C27.7155 19.6504 27.8901 19.7645 28.0355 19.9109C28.1809 20.0573 28.2939 20.2326 28.3672 20.4254C28.4406 20.6183 28.4725 20.8244 28.461 21.0304C28.4886 23.2461 28.461 25.4643 28.461 27.6825V28.4085H31.4654V26.9665C31.4654 25.0312 31.4654 23.0934 31.4654 21.1581C31.4654 20.1316 32.0863 19.4831 32.9675 19.4907C33.8488 19.4982 34.4422 20.1266 34.4472 21.088C34.4622 25.1163 34.4822 29.1446 34.4472 33.1729C34.4192 34.1313 34.078 35.0542 33.4757 35.8002C32.8734 36.5463 32.0433 37.0744 31.1124 37.3039C30.7568 37.3965 30.3938 37.4566 29.9732 37.5542V43.9134C29.9732 45.7561 29.9932 47.6013 29.9732 49.4414C29.9848 49.8414 29.916 50.2397 29.7709 50.6126C29.6258 50.9856 29.4074 51.3256 29.1286 51.6127C28.8497 51.8997 28.5161 52.1279 28.1475 52.2837C27.7789 52.4395 27.3828 52.5198 26.9826 52.5198C26.5825 52.5198 26.1864 52.4395 25.8178 52.2837C25.4492 52.1279 25.1156 51.8997 24.8367 51.6127C24.5579 51.3256 24.3395 50.9856 24.1944 50.6126C24.0493 50.2397 23.9805 49.8414 23.9921 49.4414C23.9695 45.8187 23.9921 42.1934 23.9921 38.5707L23.9745 37.5267Z" fill="#0F3F01"/>
</g>
<defs>
<clipPath id="clip0_129_374">
<rect width="71.974" height="90" fill="white"/>
</clipPath>
</defs>
</svg>
