<svg width="90" height="90" viewBox="0 0 90 90" fill="none" xmlns="http://www.w3.org/2000/svg">
<g clip-path="url(#clip0_129_367)">
<path d="M89.9623 36.271C89.6707 38.0304 89.4613 39.7993 89.0755 41.5446C85.9918 55.3897 74.0944 66.0263 59.9459 67.6329C42.9394 69.5664 27.3914 58.9838 22.9692 42.4643C18.8176 26.928 26.681 10.1145 41.2952 3.30485C44.982 1.55409 48.954 0.481623 53.021 0.13878C53.1907 0.109608 53.357 0.0631047 53.5173 0L58.2711 0C59.4237 0.171711 60.5786 0.322252 61.7288 0.515133C75.1105 2.74737 86.14 13.1488 89.0755 26.3447C89.4684 28.1065 89.673 29.9083 89.9623 31.6912V36.271ZM53.3479 16.91V36.5509H73.0053V31.2843H58.5698V16.91H53.3479Z" fill="#0F3F01"/>
<path d="M26.1424 67.4635L10.0392 83.6796L6.40039 80.029L22.4636 63.7988L26.1424 67.4635Z" fill="#0F3F01"/>
<path d="M36.5061 69.8792L40.0791 73.3887L26.1753 87.422L22.5952 83.8631L36.5061 69.8792Z" fill="#0F3F01"/>
<path d="M6.07811 67.4118L2.5498 63.9282C7.18208 59.2583 11.8253 54.5813 16.4796 49.8973L20.0079 53.3997L6.07811 67.4118Z" fill="#0F3F01"/>
<path d="M3.64121 50.0031L0 46.3831L12.6713 33.6365C13.8968 34.8549 15.1317 36.0781 16.289 37.226L3.64121 50.0031Z" fill="#0F3F01"/>
<path d="M43.7109 90L40.0674 86.4105L52.7952 73.624L56.3846 77.2017L43.7109 90Z" fill="#0F3F01"/>
</g>
<defs>
<clipPath id="clip0_129_367">
<rect width="89.9624" height="90" fill="white"/>
</clipPath>
</defs>
</svg>
